<svg xmlns="http://www.w3.org/2000/svg" viewBox="-11.1 -3.1 47.2 39.2">
	<path d="M 30 14 L 28.09 16.716 L 30 21 L 27 28 L 20 32 L 14 31 L 9 33 L 6 29 L 7 27 L 6 25 L -2 24 L -9 19 L -9 14 L -11 12 L -10 7 L -8 7 L 0 0 L 3 0 L 8 8 L 15 10 L 24 5 L 22 4 L 25 -2 L 28 -3 L 33 1 L 35 1 L 36 4 L 35 5 L 35 7 L 31 11 L 29 10 L 26 12 L 27 14 L 28 13 L 30 14 Z M 30 28 L 29 31 L 30 32 L 31 29 L 30 28 M 19 34 L 17 35 L 18 36 L 20 35 L 19 34 M 8 8 L 1 14 L -9 14 M 1 14 L 0 16 L 0 16 L 0 16 M 2 19 L 0 16 M 6 20 L 2 19 M 7 19 L 6 20 M 8 24 L 6 25 M 8 24 L 6 20 M 7 19 L 10 20 M 11 18 L 10 20 M 12 15 L 11 18 M 8 13 L 12 15 M 6 14 L 8 13 M 3.739 11.663 L 6 14 M 8 8 L 9 11 M 11 12 L 9 11 M 12 13 L 11 12 M 12 13 L 12 13 M 14 13 L 12 13 M 15 16 L 14 13 M 16 13 L 14 13 M 17 16 M 17 16 L 15 16 M 17 18 L 17 16 M 16 19 L 17 18 M 16 20 L 16 19 M 14 20 L 16 20 M 11 18 L 14 20 M 17 22 M 16 24 L 17 22 M 14 24 L 16 24 M 14 26 L 14 24 M 15 27 L 14 26 M 11 29 L 15 27 M 25 -2 L 28 -1 M 29 4 L 29 4 L 28 -1 M 35 6 L 29 4 M 28 6 L 29 4 M 30 7 L 28 6 M 29 8 L 30 7 M 33 9 L 29 8 M 27 10 L 29 8 M 27.549 10.943 L 27 10 M 25 9 L 27 10 M 22 12 L 25 9 M 22 16 L 22 12 M 19 14 L 22 12 L 19 14 L 19 14 M 22 16 M 22 16 M 24 16 L 22 16 L 22 16 L 22 16 M 23 20 L 23 22 M 25 19 L 23 20 L 25 19 M 24 18 M 26 12 L 26 12 M 26 12 V 11 L 26 11 M 25 11 L 26 11 M 25 12 L 25 11 M 25 12 L 26 12 M 26 12 L 24 16 M 24 18 L 24 16 L 24 18 L 25 19 L 27 21 L 24 18 L 28.028 16.692 M 19 14 L 17 16 L 16 13 M 19 22 L 17 22 L 16 20 M 8 24 L 11 29 M 13 28 L 14 31 M 24 12 L 25 12 M 25 13 L 25 12 M 24 13 L 24 13 L 25 13 M 24 12 L 24 13 M 19 22 L 19 14 M 19 18 L 22 16 M 19 21 L 21 22 M 21 22 L 23 22 M 27 21 L 30 21 M 26 24 L 26 24 L 27 21 L 27 21 M 27.874 25.923 L 26 24 M 23 22 L 24 24 L 24 24 M 24 24 L 26 24 M 19 21 L 19 23 M 18 24 L 19 23 L 19 23 M 18 24 L 19 25 M 17 25 L 14 26 M 19 25 L 17 25 M 24 24 L 19 25 M 27 25 L 23 28 M 24.569 29.413 L 23 28 M 21 28 L 23 28 M 18.038 31.7 L 21 28 M 22.011 24.511 L 21 28 M 19 25 L 19 28 L 19 28 M 19 28 L 21 28 M 13.581 29.84 L 19 28 M 23 31 L 24 31 L 24 32 L 23 32 L 23 31 M 21 32 L 22 32 L 22 33 L 21 33 L 21 32 M 29.498 20.017 L 29 21" stroke="#FF0000" stroke-width="0.1" fill="#000000"/>
</svg>